<?xml version="1.0" encoding="utf-8"?>
<svg width="55px" height="55px" viewBox="0 0 55 55" version="1.1" xmlns:xlink="http://www.w3.org/1999/xlink" xmlns="http://www.w3.org/2000/svg">
  <g id="allformats" fill-opacity="1">
    <path d="M-12697 -8620L-12697 -8620L-12697 -8565L-12752 -8565L-12752 -8620L-12697 -8620Z" id="allformats" fill="none" stroke="none" />
    <g id="vuesaxboldvideo-vertical">
      <g id="video-vertical">
        <path d="M14.575 17.832L14.575 25.7841L4.58333 25.7841L4.58333 17.832L14.575 17.832Z" id="Vector" fill="#FFFFFF" fill-rule="evenodd" stroke="none" />
        <path d="M14.5714 4.87874C9.34642 5.84124 5.93184 9.20999 4.9235 14.3892L14.5027 14.3892C14.5256 14.3892 14.5485 14.4121 14.5714 14.4121L14.5714 4.87874Z" id="Vector" fill="#FFFFFF" stroke="none" />
        <path d="M14.575 29.2188L4.58333 29.2188L4.58333 37.3083L14.3 37.3083C14.3917 37.3083 14.4833 37.3542 14.575 37.3771L14.575 29.2188Z" id="Vector" fill="#FFFFFF" stroke="none" />
        <path d="M40.9277 4.99512L40.9277 14.391L50.0715 14.391C49.0861 9.3722 45.8777 6.0722 40.9277 4.99512Z" id="Vector" fill="#FFFFFF" stroke="none" />
        <path d="M37.4902 4.60625C37.3756 4.58333 37.2382 4.58333 37.1007 4.58333L18.0111 4.58333L18.0111 25.7813L37.4902 25.7813L37.4902 4.60625Z" id="Vector" fill="#FFFFFF" stroke="none" />
        <path d="M50.4152 29.2188L50.4152 37.3083L40.9277 37.3083L40.9277 29.2188L50.4152 29.2188Z" id="Vector" fill="#FFFFFF" fill-rule="evenodd" stroke="none" />
        <path d="M50.0486 40.7487L40.9277 40.7487L40.9277 50.007C45.8319 48.9299 49.0402 45.6758 50.0486 40.7487Z" id="Vector" fill="#FFFFFF" stroke="none" />
        <path d="M4.95036 40.7498C6.00453 45.8373 9.39619 49.1602 14.5754 50.1227L14.5754 40.7039C14.4837 40.7269 14.392 40.7498 14.3004 40.7498L4.95036 40.7498Z" id="Vector" fill="#FFFFFF" stroke="none" />
        <path d="M50.4152 17.832L50.4152 25.7841L40.9277 25.7841L40.9277 17.832L50.4152 17.832Z" id="Vector" fill="#FFFFFF" fill-rule="evenodd" stroke="none" />
        <path d="M18.0111 50.4167L37.1007 50.4167C37.2382 50.4167 37.3756 50.4167 37.4902 50.3938L37.4902 29.2188L18.0111 29.2188L18.0111 29.2188L18.0111 50.4167Z" id="Vector" fill="#FFFFFF" stroke="none" />
        <path d="M55 0L55 55L0 55L0 0L55 0Z" id="Vector" fill="none" fill-rule="evenodd" stroke="none" />
      </g>
    </g>
  </g>
</svg>