<?xml version="1.0" encoding="utf-8"?>
<svg width="24px" height="24px" viewBox="0 0 24 24" version="1.1" xmlns:xlink="http://www.w3.org/1999/xlink" xmlns="http://www.w3.org/2000/svg">
  <defs>
    <path d="M0 0L24 0L24 24L0 24L0 0Z" id="path_1" />
    <clipPath id="clip_1">
      <use xlink:href="#path_1" clip-rule="evenodd" fill-rule="evenodd" />
    </clipPath>
  </defs>
  <g id="vuesaxboldapple">
    <path d="M-11352 -7258L-11352 -7258L-11352 -7234L-11376 -7234L-11376 -7258L-11352 -7258Z" id="vuesaxboldapple" fill="none" stroke="none" />
    <g id="vuesaxboldapple">
      <path d="M0 0L24 0L24 24L0 24L0 0Z" id="vuesaxboldapple-(BackgroundMask)" fill="none" fill-rule="evenodd" stroke="none" />
      <g clip-path="url(#clip_1)">
        <g id="apple">
          <path d="M24 0L24 24L0 24L0 0L24 0Z" id="BG-135" fill="none" fill-rule="evenodd" stroke="none" />
          <g id="Group" transform="translate(3.6210938 7)">
            <path d="M16.739 9.79001C13.419 8.53001 12.889 3.79999 16.169 1.98999C15.169 0.72999 13.759 0 12.429 0C11.469 0 10.809 0.250011 10.219 0.480011C9.71897 0.670011 9.26898 0.839996 8.70897 0.839996C8.10898 0.839996 7.57897 0.650012 7.01897 0.450012C6.40897 0.230012 5.76897 0 4.96897 0C3.47897 0 1.88897 0.910001 0.878973 2.47C-0.541027 4.67 -0.291025 8.79 1.99898 12.31C2.81898 13.57 3.91897 14.98 5.34897 15C5.94897 15.01 6.33897 14.83 6.76897 14.64C7.25897 14.42 7.78897 14.18 8.71897 14.18C9.64897 14.17 10.169 14.42 10.659 14.64C11.079 14.83 11.459 15.01 12.049 15C13.499 14.98 14.659 13.42 15.479 12.16C16.069 11.26 16.289 10.8 16.739 9.79001Z" id="Vector" fill="#FFFFFF" fill-rule="evenodd" stroke="none" />
          </g>
          <path d="M14.9604 4.95001C14.3304 5.77001 13.2304 6.41 12.1704 6.37C11.9804 5.31 12.4704 4.21999 13.0704 3.48999C13.7404 2.68999 14.8704 2.07 15.8404 2C16.0004 3.1 15.5504 4.19001 14.9604 4.95001Z" id="Vector" fill="#FFFFFF" fill-rule="evenodd" stroke="none" />
          <path d="M24 0L24 24L0 24L0 0L24 0Z" id="Vector" fill="none" fill-rule="evenodd" stroke="none" />
        </g>
      </g>
    </g>
  </g>
</svg>