<?xml version="1.0" encoding="utf-8"?>
<svg width="55px" height="55px" viewBox="0 0 55 55" version="1.1" xmlns:xlink="http://www.w3.org/1999/xlink" xmlns="http://www.w3.org/2000/svg">
  <g id="fullcontrol">
    <path d="M-12697 -8322L-12697 -8322L-12697 -8267L-12752 -8267L-12752 -8322L-12697 -8322Z" id="fullcontrol" fill="none" stroke="none" />
    <g id="vuesaxlinearsetting-5">
      <g id="setting-5">
        <path d="M43.5417 50.4167L43.5417 25.2083" id="Vector" fill="none" fill-rule="evenodd" stroke="#FFFFFF" stroke-width="3" stroke-linecap="round" stroke-linejoin="round" />
        <path d="M43.5417 16.0417L43.5417 4.58333" id="Vector" fill="none" fill-rule="evenodd" stroke="#FFFFFF" stroke-width="3" stroke-linecap="round" stroke-linejoin="round" />
        <path d="M27.5 50.4167L27.5 38.9583" id="Vector" fill="none" fill-rule="evenodd" stroke="#FFFFFF" stroke-width="3" stroke-linecap="round" stroke-linejoin="round" />
        <path d="M27.5 29.7917L27.5 4.58333" id="Vector" fill="none" fill-rule="evenodd" stroke="#FFFFFF" stroke-width="3" stroke-linecap="round" stroke-linejoin="round" />
        <path d="M11.4583 50.4167L11.4583 25.2083" id="Vector" fill="none" fill-rule="evenodd" stroke="#FFFFFF" stroke-width="3" stroke-linecap="round" stroke-linejoin="round" />
        <path d="M11.4583 16.0417L11.4583 4.58333" id="Vector" fill="none" fill-rule="evenodd" stroke="#FFFFFF" stroke-width="3" stroke-linecap="round" stroke-linejoin="round" />
        <path d="M6.875 25.2083L16.0417 25.2083" id="Vector" fill="none" fill-rule="evenodd" stroke="#FFFFFF" stroke-width="3" stroke-linecap="round" stroke-linejoin="round" />
        <path d="M38.9583 25.2083L48.125 25.2083" id="Vector" fill="none" fill-rule="evenodd" stroke="#FFFFFF" stroke-width="3" stroke-linecap="round" stroke-linejoin="round" />
        <path d="M22.9167 29.7917L32.0833 29.7917" id="Vector" fill="none" fill-rule="evenodd" stroke="#FFFFFF" stroke-width="3" stroke-linecap="round" stroke-linejoin="round" />
        <path d="M55 0L55 55L0 55L0 0L55 0Z" id="Vector" fill="none" fill-rule="evenodd" stroke="none" />
      </g>
    </g>
  </g>
</svg>