<?xml version="1.0" encoding="utf-8"?>
<svg width="55px" height="55px" viewBox="0 0 55 55" version="1.1" xmlns:xlink="http://www.w3.org/1999/xlink" xmlns="http://www.w3.org/2000/svg">
  <g id="offline" fill-opacity="1">
    <path d="M-13513 -8322L-13513 -8322L-13513 -8267L-13568 -8267L-13568 -8322L-13513 -8322Z" id="offline" fill="none" stroke="none" />
    <g id="vuesaxboldwifi">
      <g id="wifi">
        <path d="M55 0L55 55L0 55L0 0L55 0Z" id="Vector" fill="none" fill-rule="evenodd" stroke="none" />
        <path d="M42.6958 28.4818C33.4604 21.3548 21.5208 21.3548 12.2854 28.4818C11.5292 29.0548 10.4521 28.9173 9.87917 28.1839C9.30625 27.4277 9.44375 26.3506 10.1771 25.7777C20.6958 17.6423 34.2854 17.6423 44.7812 25.7777C45.5375 26.3506 45.675 27.4277 45.0792 28.1839C44.7812 28.6193 44.2771 28.8485 43.75 28.8485C43.3833 28.8485 43.0167 28.7339 42.6958 28.4818Z" id="Vector" fill="#FFFFFF" stroke="none" />
        <path d="M49.3625 20.5068C36.0709 10.2402 18.9063 10.2402 5.63752 20.5068C4.88127 21.0798 3.80418 20.9423 3.23127 20.2089C2.63543 19.4756 2.77293 18.3756 3.52918 17.8027C18.0813 6.55059 36.8959 6.55059 51.4709 17.8027C52.2271 18.3756 52.3646 19.4527 51.7688 20.2089C51.4479 20.6443 50.9209 20.8735 50.4167 20.8735C50.05 20.8735 49.6834 20.7589 49.3625 20.5068Z" id="Vector" fill="#FFFFFF" stroke="none" />
        <path d="M36.7254 36.8529C31.1305 31.7425 23.8844 31.7425 18.27 36.8529C17.6289 37.4258 16.7159 37.2883 16.2302 36.5549C15.7446 35.7987 15.8611 34.7216 16.4828 34.1487C23.1656 28.0529 31.8105 28.0529 38.4932 34.1487C39.1343 34.7216 39.2509 35.7987 38.7458 36.5549C38.4738 36.9904 38.0464 37.2195 37.619 37.2195C37.3082 37.2195 36.9974 37.1049 36.7254 36.8529Z" id="Vector" fill="#FFFFFF" stroke="none" />
        <path d="M24.75 42.0512C24.75 40.4691 26.0325 39.1866 27.6146 39.1866C29.1967 39.1866 30.4792 40.4691 30.4792 42.0512C30.4792 43.6333 29.1967 44.9158 27.6146 44.9158C26.0325 44.9158 24.75 43.6333 24.75 42.0512Z" id="Oval" fill="#FFFFFF" fill-rule="evenodd" stroke="none" />
      </g>
    </g>
  </g>
</svg>