<?xml version="1.0" encoding="utf-8"?>
<svg width="55px" height="55px" viewBox="0 0 55 55" version="1.1" xmlns:xlink="http://www.w3.org/1999/xlink" xmlns="http://www.w3.org/2000/svg">
  <g id="search">
    <path d="M-13513 -8620L-13513 -8620L-13513 -8565L-13568 -8565L-13568 -8620L-13513 -8620Z" id="search" fill="none" stroke="none" />
    <g id="vuesaxlinearbox-search">
      <g id="box-search">
        <g id="Group" transform="translate(5.477117 4.5833335)">
          <g id="Group" transform="translate(1.7875673 12.466533)">
            <path d="M0 0L20.2354 11.7104L40.3333 0.0686773" id="Vector" fill="none" stroke="#FFFFFF" stroke-width="3" stroke-linecap="round" stroke-linejoin="round" />
            <path d="M20.2353 32.4729L20.2353 11.6874" id="Vector" fill="none" fill-rule="evenodd" stroke="#FFFFFF" stroke-width="3" stroke-linecap="round" stroke-linejoin="round" />
          </g>
          <path d="M44.0458 24.8188L44.0458 16.4313C44.0458 13.2688 41.7771 9.4188 39.0041 7.88338L26.7667 1.1C24.1542 -0.366667 19.8916 -0.366667 17.2791 1.1L5.04163 7.88338C2.26871 9.4188 0 13.2688 0 16.4313L0 29.4022C0 32.5647 2.26871 36.4146 5.04163 37.95L17.2791 44.7334C18.5854 45.4668 20.3041 45.8334 22.0229 45.8334C23.7416 45.8334 25.4604 45.4668 26.7667 44.7334" id="Vector" fill="none" stroke="#FFFFFF" stroke-width="3" stroke-linecap="round" stroke-linejoin="round" />
        </g>
        <g id="Group" transform="translate(36.666668 34.375)">
          <path d="M7.33336 14.6667C3.28327 14.6667 0 11.3835 0 7.33336C0 3.28327 3.28327 0 7.33336 0C11.3835 0 14.6667 3.28327 14.6667 7.33336C14.6667 11.3835 11.3835 14.6667 7.33336 14.6667Z" id="Vector" fill="none" fill-rule="evenodd" stroke="#FFFFFF" stroke-width="3" stroke-linecap="round" stroke-linejoin="round" />
          <path d="M16.0417 16.0417L13.75 13.75" id="Vector" fill="none" fill-rule="evenodd" stroke="#FFFFFF" stroke-width="3" stroke-linecap="round" stroke-linejoin="round" />
        </g>
        <path d="M55 0L55 55L0 55L0 0L55 0Z" id="Vector" fill="none" fill-rule="evenodd" stroke="none" />
      </g>
    </g>
  </g>
</svg>