<?xml version="1.0" encoding="utf-8"?>
<svg width="24px" height="24px" viewBox="0 0 24 24" version="1.1" xmlns:xlink="http://www.w3.org/1999/xlink" xmlns="http://www.w3.org/2000/svg">
  <defs>
    <path d="M0 0L24 0L24 24L0 24L0 0Z" id="path_1" />
    <clipPath id="clip_1">
      <use xlink:href="#path_1" clip-rule="evenodd" fill-rule="evenodd" />
    </clipPath>
  </defs>
  <g id="vuesaxboldwindows">
    <path d="M-11352 -7258L-11352 -7258L-11352 -7234L-11376 -7234L-11376 -7258L-11352 -7258Z" id="vuesaxboldwindows" fill="none" stroke="none" />
    <g id="vuesaxboldwindows">
      <path d="M0 0L24 0L24 24L0 24L0 0Z" id="vuesaxboldwindows-(BackgroundMask)" fill="none" fill-rule="evenodd" stroke="none" />
      <g clip-path="url(#clip_1)">
        <g id="windows">
          <path d="M24 0L24 24L0 24L0 0L24 0Z" id="BG-163" fill="none" fill-rule="evenodd" stroke="none" />
          <path d="M12.8 3.84145C12.33 3.93145 12 4.34146 12 4.82146L12 10.0014C12 10.5514 12.45 11.0015 13 11.0015L21 11.0015C21.55 11.0015 22 10.5514 22 10.0014L22 3.22145C22 2.59145 21.42 2.12144 20.8 2.24144L12.8 3.84145Z" id="Vector" fill="#FFFFFF" fill-rule="evenodd" stroke="none" />
          <path d="M12.8 20.16C12.33 20.07 12 19.66 12 19.18L12 14C12 13.45 12.45 13 13 13L21 13C21.55 13 22 13.45 22 14L22 20.78C22 21.41 21.42 21.88 20.8 21.76L12.8 20.16Z" id="Vector" fill="#FFFFFF" fill-rule="evenodd" stroke="none" />
          <path d="M2.78998 5.82958C2.32998 5.92958 2 6.33959 2 6.80959L2 9.99959C2 10.5496 2.45 10.9996 3 10.9996L9 10.9996C9.55 10.9996 10 10.5496 10 9.99959L10 5.52959C10 4.89959 9.40998 4.41959 8.78998 4.55959L2.78998 5.82958Z" id="Vector" fill="#FFFFFF" fill-rule="evenodd" stroke="none" />
          <path d="M2.78998 18.17C2.32998 18.07 2 17.66 2 17.19L2 14C2 13.45 2.45 13 3 13L9 13C9.55 13 10 13.45 10 14L10 18.47C10 19.1 9.40998 19.58 8.78998 19.44L2.78998 18.17Z" id="Vector" fill="#FFFFFF" fill-rule="evenodd" stroke="none" />
          <path d="M24 0L24 24L0 24L0 0L24 0Z" id="Vector" fill="none" fill-rule="evenodd" stroke="none" />
        </g>
      </g>
    </g>
  </g>
</svg>