<?xml version="1.0" encoding="utf-8"?>
<svg width="1255px" height="457px" viewBox="0 0 1255 457" version="1.1" xmlns:xlink="http://www.w3.org/1999/xlink" xmlns="http://www.w3.org/2000/svg">
  <defs>
    <linearGradient gradientUnits="objectBoundingBox" x1="0.5" y1="0.1491228" x2="0.5" y2="1" id="gradient_1">
      <stop offset="0%" stop-color="#2B2B2B" />
      <stop offset="100%" stop-color="#121212" />
    </linearGradient>
    <path d="M0 0L1254 0L1254 456L0 456L0 0Z" id="path_1" />
  </defs>
  <g id="Footer">
    <g id="Footer" clip-path="url(#clip_1)">
      <g stroke="url(#gradient_1)" stroke-width="1" id="Vleer" fill="#FFFFFF" fill-opacity="0">
        <path d="M11.25 94.5L126.9 414L206.55 414L322.2 94.5L251.1 94.5L166.95 336.6L81.9 94.5L11.25 94.5ZM370.55 94.5L370.55 347.85C370.55 390.15 396.65 414 436.7 414L473.6 414L473.6 363.6L456.5 363.6C444.8 363.6 438.05 356.85 438.05 344.7L438.05 94.5L370.55 94.5ZM509.8 294.75C509.8 369.9 557.95 419.4 632.2 419.4C686.65 419.4 731.2 390.6 745.6 344.25L677.2 339.75C669.55 357.75 651.55 369.45 632.2 369.45C601.6 369.45 582.25 347.85 580.45 312.3L748.75 312.3L748.75 299.7C749.2 216 698.35 170.1 632.2 170.1C557.95 170.1 509.8 219.6 509.8 294.75ZM580.9 271.35C584.5 239.4 603.4 220.05 632.2 220.05C656.05 220.05 676.75 235.35 680.35 271.35L580.9 271.35ZM791.25 294.75C791.25 369.9 839.4 419.4 913.65 419.4C968.1 419.4 1012.65 390.6 1027.05 344.25L958.65 339.75C951 357.75 933 369.45 913.65 369.45C883.05 369.45 863.7 347.85 861.9 312.3L1030.2 312.3L1030.2 299.7C1030.65 216 979.8 170.1 913.65 170.1C839.4 170.1 791.25 219.6 791.25 294.75ZM862.35 271.35C865.95 239.4 884.85 220.05 913.65 220.05C937.5 220.05 958.2 235.35 961.8 271.35L862.35 271.35ZM1080.8 175.5L1080.8 414L1148.3 414L1148.3 281.7C1148.3 244.35 1164.05 225.9 1203.2 225.9L1225.7 225.9L1225.7 175.5L1203.65 175.5C1173.5 175.5 1155.5 191.7 1146.5 223.65L1145.15 175.5L1080.8 175.5Z" />
      </g>
    </g>
  </g>
</svg>